# xmcd
#
# Track frame offsets:
#	150
#	9404
#	21547
#	33377
#	46682
#	55625
#	67413
#	79728
#	90599
#	102484
#	114645
#	128192
#	141482
#	156316
#	166086
#	177667
#
# Disc length: 2533 seconds
#
# Revision: 1
# Processed by: cddbd v1.4PL0 Copyright (c) Steve Scherf et al.
# Submitted via: EasyCDDAExtractor 6.2.0.3
#
DISCID=dd09e310
DTITLE=GLADYS KNIGHT AND THE PIPS - EVERY BEAT OF MY HEART
DYEAR=1900
DGENRE=Soul
TTITLE0=EVERY BEAT OF MY HEART
TTITLE1=LETTER FULL OF TEARS
TTITLE2=EITHER WAY I LOSE
TTITLE3=STOP AND GET AHOLD OF MYSELF
TTITLE4=IF EVER I SHOULD FALL IN LOVE
TTITLE5=WHY DON'T YOU LOVE ME
TTITLE6=COME SEE ABOUT ME
TTITLE7=HOW DO YOU SAY GOODBYE
TTITLE8=WHO KNOWS
TTITLE9=MAYBE MAYBE BABY
TTITLE10=GIVING UP
TTITLE11=QUEEN OF TEARS
TTITLE12=GUESS WHO
TTITLE13=OPERATOR
TTITLE14=LOVER NEVER FORGIVE
TTITLE15=THERE WILL ALWAYS BE ANOTHER LOVE
EXTD=
EXTT0=
EXTT1=
EXTT2=
EXTT3=
EXTT4=
EXTT5=
EXTT6=
EXTT7=
EXTT8=
EXTT9=
EXTT10=
EXTT11=
EXTT12=
EXTT13=
EXTT14=
EXTT15=
PLAYORDER=
